<?xml version="1.0" encoding="UTF-8"?>
<svg version="1.1" xmlns="http://www.w3.org/2000/svg" width="720" height="720">
<path d="M0 0 C237.6 0 475.2 0 720 0 C720 237.6 720 475.2 720 720 C482.4 720 244.8 720 0 720 C0 482.4 0 244.8 0 0 Z " fill="#E4E6E8" transform="translate(0,0)"/>
<path d="M0 0 C1.03277069 -0.00012085 2.06554138 -0.0002417 3.12960815 -0.00036621 C22.27417617 0.03124702 40.89764434 1.50433566 59.8125 4.375 C60.89128418 4.52984863 61.97006836 4.68469727 63.08154297 4.84423828 C86.24436242 8.20424245 108.79032557 14.53848964 130.8125 22.375 C131.53469727 22.62604492 132.25689453 22.87708984 133.00097656 23.13574219 C142.64510465 26.49392533 151.72705373 30.56872642 160.76953125 35.30859375 C162.83845807 36.38854981 164.91800792 37.44548453 167 38.5 C197.34511814 54.01858149 225.69791792 75.49823235 246.8125 102.375 C247.40546875 103.10074219 247.9984375 103.82648438 248.609375 104.57421875 C269.02237773 129.90319691 283.8125 162.5565401 283.8125 195.375 C97.3625 195.375 -89.0875 195.375 -281.1875 195.375 C-276.72099088 152.94316336 -260.15199757 117.85944708 -230.1875 87.375 C-229.10407485 86.2526928 -228.0207437 85.13029484 -226.9375 84.0078125 C-187.74580935 43.7510988 -133.39010475 20.03020032 -79.1875 8.375 C-77.80014648 8.07553467 -77.80014648 8.07553467 -76.38476562 7.77001953 C-51.09163102 2.37542549 -25.85593253 -0.0471446 0 0 Z " fill="#AFB3B8" transform="translate(359.1875,457.625)"/>
<path d="M0 0 C0.70143127 0.00087616 1.40286255 0.00175232 2.12554932 0.00265503 C31.49120884 0.12320782 59.48742193 9.87073401 82.5 28.375 C83.00982422 28.77944336 83.51964844 29.18388672 84.04492188 29.60058594 C111.59763895 51.57991427 129.50724624 81.92916175 137.6875 116.125 C137.85459473 116.82214111 138.02168945 117.51928223 138.19384766 118.23754883 C138.35030762 118.91712646 138.50676758 119.5967041 138.66796875 120.296875 C138.80485107 120.89081055 138.9417334 121.48474609 139.08276367 122.09667969 C140.22760401 128.34808404 140.68077805 134.50319626 140.7734375 140.84375 C140.78592026 141.63349716 140.79840302 142.42324432 140.81126404 143.23692322 C141.04059478 161.22996445 140.4796699 177.94615534 135.5 195.375 C135.13359308 196.79640617 134.76889412 198.21825417 134.40625 199.640625 C128.05453022 223.2055054 114.75834036 243.53260292 98.5 261.375 C97.78585937 262.17292969 97.07171875 262.97085937 96.3359375 263.79296875 C75.26658154 286.12323212 43.6004098 302.08822306 12.7722168 303.55200195 C-22.03162285 304.1098769 -22.03162285 304.1098769 -36.5 299.375 C-37.35335937 299.09591797 -38.20671875 298.81683594 -39.0859375 298.52929688 C-61.90668192 290.82974772 -80.65562958 278.66264332 -97.5 261.375 C-98.04527344 260.88644531 -98.59054687 260.39789063 -99.15234375 259.89453125 C-124.41948562 236.48754707 -139.2869572 197.18435401 -140.62255859 163.26220703 C-140.97846468 148.0574678 -140.86517496 133.24816206 -137.5 118.375 C-137.32307617 117.58448242 -137.14615234 116.79396484 -136.96386719 115.97949219 C-130.25699632 86.84688386 -116.18175491 61.82870222 -95.5 40.375 C-94.90832031 39.73175781 -94.31664062 39.08851563 -93.70703125 38.42578125 C-78.30438398 22.11038451 -57.03391995 10.95103837 -35.75 4.5625 C-35.1017627 4.3675293 -34.45352539 4.17255859 -33.78564453 3.97167969 C-22.62082762 0.81355986 -11.56972707 -0.03545213 0 0 Z " fill="#AFB4B7" transform="translate(361.5,145.625)"/>
</svg>
